Coordinates
version=1
nRows=15
nColumns=23
inDegrees=yes

Units are S.I. units (second, meters, Newtons, ...)
If the header above contains a line with 'inDegrees', this indicates whether rotational values are in degrees (yes) or radians (no).

endheader
time	pelvis_tilt	pelvis_list	pelvis_rotation	pelvis_tx	pelvis_ty	pelvis_tz	hip_flexion_r	hip_adduction_r	hip_rotation_r	knee_angle_r	knee_angle_r_beta	ankle_angle_r	subtalar_angle_r	mtp_angle_r	hip_flexion_l	hip_adduction_l	hip_rotation_l	knee_angle_l	knee_angle_l_beta	ankle_angle_l	subtalar_angle_l	mtp_angle_l
      0.00000000	     -5.27348046	      6.03734721	      4.39086757	      2.37228949	      0.96555883	      1.03756740	    -22.01074666	     -4.55633325	    -17.39826515	     14.19635831	      0.24777319	    -14.12651477	      2.95517391	      0.00000000	     37.53970883	      1.69309598	     -7.73892671	     68.57434016	      1.19684802	      2.44324554	    -14.92976601	      0.00000000
      0.00666667	     -6.24738249	      6.36396895	      5.40406387	      2.37303131	      0.96695364	      1.03585561	    -21.57734938	     -4.85421093	    -17.44851672	     16.25800502	      0.28375572	    -15.41600834	      2.73720299	      0.00000000	     38.64144272	      2.71184114	     -8.06112453	     64.57785045	      1.12709611	      2.87793676	    -12.61705721	      0.00000000
      0.01333333	     -7.20551658	      6.71681910	      6.24140838	      2.37361989	      0.96797151	      1.03436531	    -21.04534017	     -5.29259736	    -17.47434001	     18.58822211	      0.32442568	    -16.24983436	      2.89393739	      0.00000000	     39.49468504	      3.66819655	     -8.61784634	     60.37543131	      1.05375006	      3.67806022	     -9.67944737	      0.00000000
      0.02000000	     -8.03065406	      7.12004171	      7.01850688	      2.37410339	      0.96887202	      1.03294455	    -20.63172582	     -5.69857736	    -17.16297344	     20.94636406	      0.36558302	    -16.79098568	      2.98379335	      0.00000000	     39.94471533	      4.73075265	     -9.18779387	     55.92142612	      0.97601301	      4.32173838	     -6.73079185	      0.00000000
      0.02666667	     -8.60846173	      7.47939965	      7.62034303	      2.37438202	      0.96959930	      1.03174601	    -20.27827378	     -6.09637940	    -16.70432819	     23.62836942	      0.41239284	    -16.96616755	      3.17254330	      0.00000000	     39.95252379	      5.65343566	     -9.89699727	     51.39816078	      0.89706714	      5.01715804	     -3.55281306	      0.00000000
      0.03333333	     -8.95724605	      7.75767947	      8.19366606	      2.37439268	      0.97011918	      1.03054278	    -19.98181096	     -6.34792319	    -16.08718413	     26.57421961	      0.46380763	    -16.92871910	      2.98077526	      0.00000000	     39.58010099	      6.62177762	    -10.37622172	     46.82798390	      0.81730250	      5.56681201	     -0.74194082	      0.00000000
      0.04000000	     -9.01478813	      8.01226729	      8.59492560	      2.37412371	      0.97040517	      1.02952153	    -19.70909647	     -6.66261487	    -15.57480964	     29.98915450	      0.52340949	    -16.63437763	      2.91768916	      0.00000000	     38.80767632	      7.45068629	    -11.01482021	     42.38539827	      0.73976475	      6.10566565	      2.21514347	      0.00000000
      0.04666667	     -8.89533178	      8.24263836	      8.98564451	      2.37360772	      0.97040416	      1.02845357	    -19.41309763	     -6.93113044	    -15.10043608	     33.71251066	      0.58839431	    -16.32389508	      2.35764780	      0.00000000	     37.75117509	      8.40604159	    -11.29956658	     38.01229204	      0.66343965	      6.46595013	      4.42372091	      0.00000000
      0.05333333	     -8.58741453	      8.43214739	      9.32371436	      2.37282303	      0.97006517	      1.02746153	    -19.08609510	     -7.17751586	    -14.70246806	     37.75830555	      0.65900675	    -16.05937798	      1.33046652	      0.00000000	     36.45949680	      9.36126572	    -11.34446833	     33.86568602	      0.59106772	      6.70136624	      6.08620975	      0.00000000
      0.06000000	     -8.12139738	      8.68356524	      9.58849612	      2.37182112	      0.96930801	      1.02648184	    -18.73034427	     -7.59886293	    -14.56047693	     42.13422458	      0.73538095	    -15.79028837	      0.25292288	      0.00000000	     34.97280961	     10.33113607	    -11.35759869	     30.02913888	      0.52410734	      6.79017642	      7.35357549	      0.00000000
      0.06666667	     -7.56858788	      8.98675722	      9.86618576	      2.37064377	      0.96810493	      1.02542616	    -18.32667399	     -8.14549664	    -14.63199521	     46.72082943	      0.81543230	    -15.51056812	     -1.03661793	      0.00000000	     33.38872506	     11.37256998	    -11.17278320	     26.57534014	      0.46382719	      6.69528659	      8.03218136	      0.00000000
      0.07333333	     -6.92683094	      8.96101558	     10.32523800	      2.36916067	      0.96657454	      1.02421265	    -17.84606354	     -8.14535556	    -14.53639359	     51.28150152	      0.89503105	    -15.27501394	     -2.92437580	      0.00000000	     31.91244262	     12.09523209	    -10.73702080	     23.95011059	      0.41800829	      6.91229904	      9.04796964	      0.00000000
      0.08000000	     -6.32439957	      9.63056953	     10.41990546	      2.36772028	      0.96447467	      1.02334388	    -17.29123700	     -9.26908381	    -14.75480521	     56.13747466	      0.97978377	    -15.32165913	     -5.25714167	      0.00000000	     30.28536379	     13.30693306	    -10.67606626	     21.38419621	      0.37322463	      5.95513746	      8.16010785	      0.00000000
      0.08666667	     -5.71784582	      9.97046318	     10.75723608	      2.36599639	      0.96203266	      1.02225992	    -16.60807704	     -9.85560674	    -14.85466390	     60.86951420	      1.06237344	    -15.30757080	     -7.90077946	      0.00000000	     28.98079062	     14.11313808	    -10.76774353	     19.97960638	      0.34870991	      5.53047741	      8.28534987	      0.00000000
      0.09333333	     -5.18435055	     10.45331729	     11.06080550	      2.36404728	      0.95921525	      1.02128865	    -15.75413019	    -10.65064637	    -14.93607500	     65.61194187	      1.14514441	    -15.38557870	    -10.65502346	      0.00000000	     27.86335555	     14.97941705	    -10.86598849	     19.26781298	      0.33628678	      4.81488153	      7.76318854	      0.00000000
